<mxfile host="app.diagrams.net" agent="Mozilla/5.0 (Windows NT 10.0; Win64; x64) AppleWebKit/537.36 (KHTML, like Gecko) Chrome/137.0.0.0 Safari/537.36" version="27.2.0">
  <diagram name="Page-1" id="lLMmY-Biwxp_Vvd2j5Sx">
    <mxGraphModel dx="873" dy="1601" grid="1" gridSize="10" guides="1" tooltips="1" connect="1" arrows="1" fold="1" page="1" pageScale="1" pageWidth="850" pageHeight="1100" math="0" shadow="0">
      <root>
        <mxCell id="0" />
        <mxCell id="1" parent="0" />
        <mxCell id="s3WjTyA8x37EdTAyPBMk-1" value="Actor" style="shape=umlActor;verticalLabelPosition=bottom;verticalAlign=top;html=1;outlineConnect=0;" vertex="1" parent="1">
          <mxGeometry x="170" y="120" width="30" height="60" as="geometry" />
        </mxCell>
        <mxCell id="s3WjTyA8x37EdTAyPBMk-2" value="Actor" style="shape=umlActor;verticalLabelPosition=bottom;verticalAlign=top;html=1;outlineConnect=0;" vertex="1" parent="1">
          <mxGeometry x="170" y="250" width="30" height="60" as="geometry" />
        </mxCell>
        <mxCell id="s3WjTyA8x37EdTAyPBMk-19" style="edgeStyle=orthogonalEdgeStyle;rounded=0;orthogonalLoop=1;jettySize=auto;html=1;" edge="1" parent="1" source="s3WjTyA8x37EdTAyPBMk-3" target="s3WjTyA8x37EdTAyPBMk-18">
          <mxGeometry relative="1" as="geometry">
            <Array as="points">
              <mxPoint x="360" y="400" />
            </Array>
          </mxGeometry>
        </mxCell>
        <mxCell id="s3WjTyA8x37EdTAyPBMk-3" value="Actor" style="shape=umlActor;verticalLabelPosition=bottom;verticalAlign=top;html=1;outlineConnect=0;" vertex="1" parent="1">
          <mxGeometry x="170" y="370" width="30" height="60" as="geometry" />
        </mxCell>
        <mxCell id="s3WjTyA8x37EdTAyPBMk-4" value="Paytm" style="rounded=1;whiteSpace=wrap;html=1;" vertex="1" parent="1">
          <mxGeometry x="300" y="-20" width="120" height="60" as="geometry" />
        </mxCell>
        <mxCell id="s3WjTyA8x37EdTAyPBMk-5" value="Send money" style="text;html=1;align=center;verticalAlign=middle;whiteSpace=wrap;rounded=0;" vertex="1" parent="1">
          <mxGeometry x="80" y="135" width="60" height="30" as="geometry" />
        </mxCell>
        <mxCell id="s3WjTyA8x37EdTAyPBMk-6" value="Receive money" style="text;html=1;align=center;verticalAlign=middle;whiteSpace=wrap;rounded=0;" vertex="1" parent="1">
          <mxGeometry x="80" y="265" width="60" height="30" as="geometry" />
        </mxCell>
        <mxCell id="s3WjTyA8x37EdTAyPBMk-7" value="Bill Payments" style="text;html=1;align=center;verticalAlign=middle;whiteSpace=wrap;rounded=0;" vertex="1" parent="1">
          <mxGeometry x="80" y="385" width="60" height="30" as="geometry" />
        </mxCell>
        <mxCell id="s3WjTyA8x37EdTAyPBMk-8" value="Cloud" style="rounded=1;whiteSpace=wrap;html=1;" vertex="1" parent="1">
          <mxGeometry x="630" y="230" width="120" height="60" as="geometry" />
        </mxCell>
        <mxCell id="s3WjTyA8x37EdTAyPBMk-11" value="Build ===&amp;gt; making the lines of code converting into the functionality" style="text;html=1;align=center;verticalAlign=middle;whiteSpace=wrap;rounded=0;" vertex="1" parent="1">
          <mxGeometry x="540" y="310" width="320" height="30" as="geometry" />
        </mxCell>
        <mxCell id="s3WjTyA8x37EdTAyPBMk-12" value="deploy ==&amp;gt; Where you want to keep the application, in that place you are RUNNING that application is called as deploy" style="text;html=1;align=center;verticalAlign=middle;whiteSpace=wrap;rounded=0;" vertex="1" parent="1">
          <mxGeometry x="550" y="345" width="370" height="30" as="geometry" />
        </mxCell>
        <mxCell id="s3WjTyA8x37EdTAyPBMk-13" value="5mins" style="text;html=1;align=center;verticalAlign=middle;resizable=0;points=[];autosize=1;strokeColor=none;fillColor=none;" vertex="1" parent="1">
          <mxGeometry x="770" y="198" width="60" height="30" as="geometry" />
        </mxCell>
        <mxCell id="s3WjTyA8x37EdTAyPBMk-14" value="paytm.com" style="text;html=1;align=center;verticalAlign=middle;resizable=0;points=[];autosize=1;strokeColor=none;fillColor=none;" vertex="1" parent="1">
          <mxGeometry x="230" y="90" width="80" height="30" as="geometry" />
        </mxCell>
        <mxCell id="s3WjTyA8x37EdTAyPBMk-16" style="edgeStyle=orthogonalEdgeStyle;rounded=0;orthogonalLoop=1;jettySize=auto;html=1;" edge="1" parent="1" source="s3WjTyA8x37EdTAyPBMk-15" target="s3WjTyA8x37EdTAyPBMk-3">
          <mxGeometry relative="1" as="geometry">
            <Array as="points">
              <mxPoint x="1020" y="530" />
              <mxPoint x="185" y="530" />
            </Array>
          </mxGeometry>
        </mxCell>
        <mxCell id="s3WjTyA8x37EdTAyPBMk-15" value="QA team&lt;br&gt;Quality Assurance&lt;br&gt;Testing team" style="rounded=1;whiteSpace=wrap;html=1;" vertex="1" parent="1">
          <mxGeometry x="980" y="230" width="120" height="60" as="geometry" />
        </mxCell>
        <mxCell id="s3WjTyA8x37EdTAyPBMk-25" style="edgeStyle=orthogonalEdgeStyle;rounded=0;orthogonalLoop=1;jettySize=auto;html=1;flowAnimation=1;strokeWidth=2;" edge="1" parent="1" source="s3WjTyA8x37EdTAyPBMk-18" target="s3WjTyA8x37EdTAyPBMk-22">
          <mxGeometry relative="1" as="geometry">
            <Array as="points">
              <mxPoint x="370" y="190" />
              <mxPoint x="564" y="190" />
            </Array>
          </mxGeometry>
        </mxCell>
        <mxCell id="s3WjTyA8x37EdTAyPBMk-18" value="Source code management&lt;br&gt;tool" style="rounded=1;whiteSpace=wrap;html=1;" vertex="1" parent="1">
          <mxGeometry x="310" y="230" width="120" height="60" as="geometry" />
        </mxCell>
        <mxCell id="s3WjTyA8x37EdTAyPBMk-20" value="&lt;b&gt;Version Control System = Source code management + CI/CD&lt;/b&gt;" style="rounded=1;whiteSpace=wrap;html=1;" vertex="1" parent="1">
          <mxGeometry x="310" y="570" width="330" height="60" as="geometry" />
        </mxCell>
        <mxCell id="s3WjTyA8x37EdTAyPBMk-21" value="&lt;b&gt;CI/CD = Continuous Integration and Continuous delivery&lt;/b&gt;" style="text;html=1;align=center;verticalAlign=middle;whiteSpace=wrap;rounded=0;" vertex="1" parent="1">
          <mxGeometry x="320" y="88" width="220" height="110" as="geometry" />
        </mxCell>
        <mxCell id="s3WjTyA8x37EdTAyPBMk-26" style="edgeStyle=orthogonalEdgeStyle;rounded=0;orthogonalLoop=1;jettySize=auto;html=1;flowAnimation=1;strokeWidth=3;" edge="1" parent="1" source="s3WjTyA8x37EdTAyPBMk-22" target="s3WjTyA8x37EdTAyPBMk-8">
          <mxGeometry relative="1" as="geometry" />
        </mxCell>
        <mxCell id="s3WjTyA8x37EdTAyPBMk-22" value="" style="shape=image;html=1;verticalAlign=top;verticalLabelPosition=bottom;labelBackgroundColor=#ffffff;imageAspect=0;aspect=fixed;image=https://cdn1.iconfinder.com/data/icons/science-technology-outline-24-px/24/Android_android_robot_operative_system_robot_technology-128.png" vertex="1" parent="1">
          <mxGeometry x="530" y="109" width="68" height="68" as="geometry" />
        </mxCell>
        <mxCell id="s3WjTyA8x37EdTAyPBMk-29" value="&lt;b&gt;&lt;font style=&quot;font-size: 16px;&quot;&gt;Github&lt;br&gt;Gitlab&lt;/font&gt;&lt;/b&gt;" style="text;html=1;align=center;verticalAlign=middle;whiteSpace=wrap;rounded=0;" vertex="1" parent="1">
          <mxGeometry x="310" y="650" width="110" height="70" as="geometry" />
        </mxCell>
        <mxCell id="s3WjTyA8x37EdTAyPBMk-30" value="&lt;b&gt;&lt;font style=&quot;font-size: 15px;&quot;&gt;Jenkins&lt;br&gt;Gitlab&lt;br&gt;Github actions&lt;/font&gt;&lt;/b&gt;" style="text;html=1;align=center;verticalAlign=middle;resizable=0;points=[];autosize=1;strokeColor=none;fillColor=none;" vertex="1" parent="1">
          <mxGeometry x="510" y="650" width="130" height="70" as="geometry" />
        </mxCell>
        <mxCell id="s3WjTyA8x37EdTAyPBMk-31" value="&lt;b&gt;pipeline&lt;/b&gt;" style="text;html=1;align=center;verticalAlign=middle;whiteSpace=wrap;rounded=0;" vertex="1" parent="1">
          <mxGeometry x="490" y="228" width="60" height="30" as="geometry" />
        </mxCell>
      </root>
    </mxGraphModel>
  </diagram>
</mxfile>
